<svg width="192" height="192" viewBox="0 0 192 192" fill="none" xmlns="http://www.w3.org/2000/svg">
  <rect width="192" height="192" rx="24" fill="#0ea5e9"/>
  <g clip-path="url(#clip0)">
    <path d="M96 48C73.9086 48 56 65.9086 56 88C56 110.091 73.9086 128 96 128C118.091 128 136 110.091 136 88C136 65.9086 118.091 48 96 48ZM96 64C96 62.8954 96.8954 62 98 62H110C111.105 62 112 62.8954 112 64V74C112 75.1046 111.105 76 110 76H98C96.8954 76 96 75.1046 96 74V64ZM80 84C80 82.8954 80.8954 82 82 82H110C111.105 82 112 82.8954 112 84V94C112 95.1046 111.105 94 110 94H82C80.8954 94 80 95.1046 80 94V84ZM96 104C96 102.895 96.8954 102 98 102H110C111.105 102 112 102.895 112 104V114C112 115.105 111.105 116 110 116H98C96.8954 116 96 115.105 96 114V104Z" fill="white"/>
    <path d="M48 144H144V152C144 157.523 139.523 162 134 162H58C52.4772 162 48 157.523 48 152V144Z" fill="white" fill-opacity="0.9"/>
    <rect x="64" y="144" width="8" height="18" fill="#0ea5e9"/>
    <rect x="92" y="144" width="8" height="18" fill="#0ea5e9"/>
    <rect x="120" y="144" width="8" height="18" fill="#0ea5e9"/>
  </g>
  <defs>
    <clipPath id="clip0">
      <rect width="96" height="114" fill="white" transform="translate(48 48)"/>
    </clipPath>
  </defs>
</svg>